<?xml version="1.0" standalone="no"?>
<!DOCTYPE svg PUBLIC "-//W3C//DTD SVG 20010904//EN"
 "http://www.w3.org/TR/2001/REC-SVG-20010904/DTD/svg10.dtd">
<svg version="1.0" xmlns="http://www.w3.org/2000/svg"
 width="900.000000pt" height="501.000000pt" viewBox="0 0 900.000000 501.000000"
 preserveAspectRatio="xMidYMid meet">
<metadata>
Created by potrace 1.10, written by Peter Selinger 2001-2011
</metadata>
<g transform="translate(0.000000,501.000000) scale(0.100000,-0.100000)"
fill="#fff" stroke="none">
<path d="M4575 4723 c-173 -40 -270 -143 -301 -318 -11 -65 -14 -256 -13
-1050 l0 -970 37 45 c84 102 234 240 260 240 6 0 12 3 14 8 4 10 150 82 166
82 7 0 20 4 30 10 59 33 109 34 1567 40 1407 5 1451 6 1495 25 129 55 195 124
233 242 15 46 17 121 17 695 0 679 1 665 -46 765 -18 41 -89 115 -129 136
-104 56 38 52 -1710 53 -880 1 -1609 0 -1620 -3z m905 -340 c79 -33 106 -50
154 -98 120 -119 166 -331 109 -505 -20 -62 -415 -852 -433 -867 -10 -9 -49
-12 -125 -10 l-110 2 3 25 c2 14 65 148 140 299 75 151 138 278 140 282 2 5
-23 6 -55 3 -63 -7 -154 8 -203 33 -41 20 -121 102 -142 144 -35 72 -48 138
-48 239 0 155 42 269 133 357 52 51 118 93 147 93 9 0 20 4 26 9 23 24 205 19
264 -6z m2035 8 c62 -24 117 -53 142 -73 72 -60 143 -159 143 -200 0 -9 5 -20
10 -23 6 -3 10 -52 10 -113 0 -124 -13 -169 -74 -252 -32 -44 -266 -339 -344
-435 -10 -11 -35 -43 -57 -70 -22 -28 -43 -51 -47 -53 -5 -2 -8 -10 -8 -18 0
-11 45 -14 262 -16 l262 -3 6 -25 c3 -14 3 -65 0 -115 l-5 -90 -410 -3 c-377
-2 -411 -1 -422 15 -8 10 -13 51 -13 108 l0 92 191 239 c105 131 198 248 207
259 9 11 42 52 72 90 30 39 60 76 67 83 7 7 13 17 13 20 0 4 11 19 25 34 26
28 55 98 55 133 0 26 -26 100 -46 130 -17 27 -110 75 -144 75 -43 0 -118 -32
-148 -63 -17 -18 -39 -57 -49 -87 l-19 -55 -99 -5 c-119 -6 -129 0 -120 69 20
142 133 287 265 340 64 25 223 32 275 12z m-1147 -3 c9 -9 12 -187 12 -740 0
-841 15 -748 -124 -748 -64 0 -88 4 -100 16 -14 14 -16 83 -16 615 0 329 -3
599 -6 599 -3 0 -16 -8 -29 -17 -12 -10 -33 -25 -45 -33 -12 -8 -36 -27 -54
-43 -17 -15 -40 -26 -51 -25 -18 3 -20 12 -23 95 -2 62 2 101 10 118 7 13 58
58 113 99 l100 75 101 0 c65 1 104 -3 112 -11z m412 -1267 c13 -25 13 -161 0
-196 -10 -26 -10 -26 -112 -23 l-103 3 -3 104 c-1 58 0 111 2 118 4 10 32 13
105 13 89 0 101 -2 111 -19z"/>
<path d="M5265 4162 c-102 -40 -145 -156 -114 -300 11 -53 53 -107 102 -132
40 -20 125 -18 173 4 46 21 88 77 105 141 22 82 -7 211 -58 257 -24 22 -101
48 -138 47 -16 -1 -48 -8 -70 -17z"/>
<path d="M3147 2803 c-4 -3 -7 -135 -7 -293 0 -158 -3 -290 -7 -293 -4 -4 -19
5 -34 19 -29 28 -47 39 -119 75 -38 18 -62 22 -150 22 -93 1 -111 -2 -160 -25
-73 -35 -113 -66 -153 -119 -75 -101 -91 -179 -91 -454 -1 -309 22 -405 123
-505 103 -103 239 -141 373 -106 74 19 107 35 155 73 23 18 46 33 52 33 5 0
11 -21 13 -47 l3 -48 118 -3 117 -3 0 841 0 840 -113 0 c-63 0 -117 -3 -120
-7z m-116 -734 c86 -61 109 -134 109 -342 0 -192 -13 -248 -75 -313 -33 -34
-51 -44 -100 -54 -66 -14 -148 -3 -191 25 -75 49 -107 149 -108 335 -1 172 21
266 74 320 27 26 66 48 96 53 60 10 165 -3 195 -24z"/>
<path d="M3764 2797 c-2 -7 -3 -60 -2 -118 l3 -104 95 -3 c149 -5 141 -12 138
121 l-3 112 -113 3 c-87 2 -114 0 -118 -11z"/>
<path d="M790 2330 c-55 -10 -112 -38 -164 -79 -22 -17 -44 -30 -49 -28 -6 2
-11 25 -11 53 l-1 49 -115 0 -115 0 -3 -598 -2 -598 117 3 118 3 5 395 c3 217
10 406 15 420 13 39 62 96 103 122 31 19 51 23 118 23 62 0 87 -4 100 -16 43
-37 58 -33 115 33 29 35 66 77 81 93 16 17 27 36 26 44 -2 8 -31 29 -65 47
-52 29 -75 35 -145 38 -46 3 -103 1 -128 -4z"/>
<path d="M1505 2331 c-33 -4 -69 -12 -80 -18 -11 -5 -38 -19 -60 -29 -49 -23
-128 -98 -123 -116 5 -13 157 -137 170 -138 4 0 21 13 39 29 36 33 124 61 193
61 81 0 182 -29 213 -62 24 -25 27 -37 31 -116 3 -66 1 -90 -9 -99 -9 -7 -93
-12 -234 -15 l-220 -4 -65 -33 c-124 -62 -190 -171 -190 -312 0 -148 78 -269
210 -326 50 -22 157 -43 215 -43 99 0 239 42 252 76 3 8 13 14 23 14 14 0 20
-9 22 -32 l3 -33 115 0 115 0 0 470 0 470 -24 49 c-27 56 -101 133 -152 157
-77 37 -137 49 -259 53 -69 3 -152 1 -185 -3z m379 -798 c-1 -88 -4 -105 -23
-129 -38 -48 -90 -64 -213 -64 -122 0 -159 11 -215 64 -30 27 -33 35 -33 85 1
69 24 101 95 130 44 18 69 20 220 18 l170 -2 -1 -102z"/>
<path d="M4745 2330 c-56 -9 -120 -31 -137 -48 -7 -7 -18 -12 -25 -12 -18 0
-153 -135 -153 -153 0 -7 -5 -18 -11 -24 -26 -26 -47 -118 -59 -249 -17 -188
2 -367 48 -464 39 -83 133 -180 210 -216 163 -77 335 -69 503 22 32 17 137
128 150 158 5 12 13 28 18 36 5 8 17 40 27 70 16 47 19 87 19 275 0 246 -9
293 -71 392 -109 172 -291 247 -519 213z m224 -258 c47 -29 81 -65 104 -111
20 -43 22 -59 22 -236 0 -188 0 -190 -28 -243 -51 -98 -162 -147 -273 -123
-72 16 -115 45 -153 102 -27 41 -32 60 -41 159 -14 148 2 307 35 359 37 59 99
106 151 114 49 8 156 -4 183 -21z"/>
<path d="M3765 2318 c-3 -7 -4 -276 -3 -598 l3 -585 115 0 115 0 3 589 c2 465
0 591 -10 598 -22 13 -218 10 -223 -4z"/>
<path d="M645 772 c-58 -36 -60 -43 -60 -198 0 -144 0 -144 28 -171 24 -24 35
-28 86 -28 69 0 92 16 109 74 17 56 15 221 -3 265 -27 65 -105 93 -160 58z
m94 -68 c18 -23 21 -41 21 -128 0 -115 -12 -146 -58 -146 -54 0 -57 9 -57 145
0 114 2 128 19 141 29 21 52 17 75 -12z"/>
<path d="M1010 778 c-14 -6 -34 -22 -45 -37 -18 -23 -20 -41 -20 -168 0 -142
0 -143 28 -170 23 -24 36 -28 82 -28 46 0 59 4 82 28 l28 27 0 149 c0 163 -3
171 -63 197 -39 16 -56 16 -92 2z m78 -64 c21 -14 22 -23 22 -133 0 -119 -8
-147 -40 -151 -27 -4 -38 0 -54 16 -13 12 -16 40 -16 134 0 111 1 120 22 134
12 9 27 16 33 16 6 0 21 -7 33 -16z"/>
<path d="M1328 778 c-18 -15 -28 -62 -21 -99 11 -56 85 -56 96 0 16 78 -28
135 -75 99z m44 -83 c-15 -32 -32 -24 -32 14 0 36 10 45 29 27 12 -12 12 -20
3 -41z"/>
<path d="M1889 774 c-5 -7 -8 -95 -7 -205 l3 -194 97 0 c83 0 101 3 125 21 50
38 65 76 67 172 1 97 -12 144 -52 180 -14 12 -26 22 -26 23 -1 1 -45 4 -99 8
-69 4 -102 3 -108 -5z m153 -55 c52 -14 68 -48 68 -144 0 -121 -29 -153 -131
-143 l-34 3 -3 134 c-3 168 3 177 100 150z"/>
<path d="M2404 777 c-71 -28 -94 -76 -94 -203 0 -135 30 -186 118 -200 61 -9
114 9 146 50 25 33 26 41 26 154 l0 119 -32 35 c-31 34 -82 59 -117 57 -9 0
-30 -6 -47 -12z m110 -78 c25 -20 26 -25 26 -115 0 -105 -12 -137 -57 -149
-76 -19 -113 28 -113 141 0 69 12 112 37 132 25 18 77 14 107 -9z"/>
<path d="M3148 779 c-5 -4 -8 -15 -6 -25 2 -14 13 -20 43 -22 65 -6 65 -7 65
-188 0 -99 4 -165 10 -169 6 -3 19 -3 30 0 19 6 20 15 20 165 0 87 3 165 6
174 4 11 19 16 43 16 44 0 66 13 58 33 -5 13 -30 16 -132 19 -70 2 -132 0
-137 -3z"/>
<path d="M364 757 c-33 -28 -27 -57 11 -57 l25 0 0 -159 c0 -137 2 -160 16
-165 39 -15 44 9 44 198 0 128 -4 186 -12 194 -19 19 -54 14 -84 -11z"/>
<path d="M1450 673 c-29 -60 -71 -147 -94 -194 -42 -87 -47 -113 -20 -102 12
4 38 52 68 123 3 8 10 22 15 30 5 8 24 47 41 85 18 39 38 82 46 97 16 30 19
68 5 68 -5 0 -33 -48 -61 -107z"/>
<path d="M2755 758 c-3 -12 -4 -101 -3 -197 3 -152 5 -175 20 -185 29 -18 41
6 39 77 -2 71 12 97 54 97 24 0 46 -27 78 -95 31 -67 33 -70 61 -79 40 -15 50
3 27 47 -11 21 -23 43 -28 50 -6 7 -16 27 -23 45 -12 30 -11 34 9 48 56 40 67
121 22 174 l-29 35 -110 3 c-109 4 -111 3 -117 -20z m195 -38 c31 -16 42 -45
29 -73 -14 -32 -48 -47 -104 -47 -49 0 -65 16 -65 65 0 50 16 65 71 65 28 0
59 -5 69 -10z"/>
<path d="M3552 768 c-8 -8 -12 -66 -12 -194 0 -153 2 -184 16 -195 11 -9 20
-10 32 -2 14 8 18 29 20 102 3 111 17 118 54 29 28 -69 49 -89 75 -72 19 12
23 19 51 89 11 27 25 51 31 53 12 4 13 0 15 -112 1 -62 5 -81 18 -90 35 -22
40 4 39 195 0 101 -1 190 -1 197 0 6 -11 12 -24 12 -25 0 -34 -15 -82 -125
-37 -86 -56 -125 -62 -125 -8 0 -20 24 -69 140 -20 47 -41 91 -46 98 -12 15
-39 16 -55 0z"/>
<path d="M4063 763 c-5 -10 -6 -87 -3 -170 l5 -153 33 -32 c30 -31 37 -33 102
-33 67 0 71 1 107 37 l37 37 4 140 c5 165 1 191 -32 191 -13 0 -27 -7 -30 -16
-3 -9 -6 -77 -6 -152 0 -75 -4 -142 -8 -148 -26 -39 -93 -44 -127 -9 -24 23
-25 29 -25 163 0 137 -6 162 -37 162 -7 0 -16 -8 -20 -17z"/>
<path d="M4517 773 c-4 -3 -7 -93 -7 -200 0 -164 2 -195 15 -199 36 -14 45 14
45 132 0 107 1 114 20 114 11 0 20 -5 20 -11 0 -5 20 -40 44 -77 23 -37 55
-86 70 -109 28 -46 71 -66 87 -42 5 8 8 100 6 204 l-2 190 -25 0 -25 0 -3
-125 c-1 -68 -6 -128 -11 -133 -6 -6 -111 132 -111 148 0 8 -64 100 -74 107
-14 10 -41 10 -49 1z"/>
<path d="M4988 774 c-5 -4 -8 -94 -8 -200 l0 -194 26 -6 c14 -4 63 -4 108 -1
80 5 81 6 119 47 l37 43 0 109 c0 119 -8 146 -58 183 -22 16 -46 21 -122 23
-52 2 -98 0 -102 -4z m155 -54 c10 0 29 -12 42 -26 23 -25 25 -35 25 -118 -1
-115 -13 -136 -88 -144 -79 -7 -82 -2 -82 150 0 124 1 129 23 138 12 5 31 7
42 5 11 -3 28 -5 38 -5z"/>
<path d="M1452 500 c-43 -41 -17 -130 38 -130 56 0 81 87 37 128 -29 27 -47
28 -75 2z m63 -60 c0 -18 -6 -26 -23 -28 -24 -4 -38 18 -28 44 3 9 15 14 28
12 17 -2 23 -10 23 -28z"/>
</g>
</svg>
