<?xml version="1.0" standalone="no"?>
<!DOCTYPE svg PUBLIC "-//W3C//DTD SVG 20010904//EN"
 "http://www.w3.org/TR/2001/REC-SVG-20010904/DTD/svg10.dtd">
<svg version="1.0" xmlns="http://www.w3.org/2000/svg"
 width="900.000000pt" height="282.000000pt" viewBox="0 0 900.000000 282.000000"
 preserveAspectRatio="xMidYMid meet">
<metadata>
Created by potrace 1.10, written by Peter Selinger 2001-2011
</metadata>
<g transform="translate(0.000000,282.000000) scale(0.100000,-0.100000)"
fill="#fff" stroke="none">
<path d="M8320 2358 c-25 -34 -47 -67 -49 -73 -2 -5 -17 -26 -32 -46 -16 -20
-29 -42 -29 -48 0 -6 -4 -11 -8 -11 -5 0 -14 -10 -21 -22 -6 -13 -20 -36 -31
-53 -11 -16 -23 -37 -27 -45 -4 -8 -25 -42 -47 -75 -59 -88 -65 -98 -73 -115
-4 -8 -18 -33 -32 -55 -43 -67 -46 -73 -105 -180 -15 -27 -36 -63 -46 -80 -11
-16 -31 -52 -46 -80 -14 -27 -41 -77 -60 -110 -18 -33 -36 -66 -39 -72 -3 -7
-7 -19 -10 -25 -3 -7 -16 -33 -30 -57 -14 -24 -25 -50 -25 -56 0 -7 -6 -18
-14 -24 -7 -6 -16 -24 -19 -40 -8 -38 -94 -130 -173 -186 -36 -25 -69 -45 -75
-45 -5 0 -20 -6 -32 -14 -12 -7 -48 -19 -80 -25 -160 -34 -241 93 -191 297 17
68 25 90 64 172 75 158 192 302 286 351 45 24 45 24 60 5 17 -23 13 -37 -31
-131 -71 -150 -69 -236 5 -295 l37 -29 22 22 c11 13 21 31 21 41 0 10 6 30 14
44 7 15 22 45 31 67 10 22 25 53 32 68 8 16 15 59 16 96 1 60 -2 71 -29 106
-16 21 -55 58 -88 82 -50 37 -65 43 -108 43 -27 0 -62 -6 -76 -14 -15 -7 -44
-22 -66 -32 -62 -30 -189 -157 -245 -244 -28 -43 -51 -83 -51 -87 0 -5 -5 -14
-12 -21 -22 -22 -77 -204 -78 -255 0 -32 -35 -86 -105 -161 -37 -39 -142 -116
-160 -116 -13 0 -3 29 18 51 12 14 33 48 46 76 23 50 23 54 17 269 -3 121 -9
267 -12 327 -7 116 -2 140 47 211 22 33 25 44 17 62 -13 29 -27 34 -66 26 -74
-16 -162 -126 -162 -204 0 -20 -7 -41 -15 -48 -8 -7 -15 -16 -15 -21 0 -4 -37
-63 -82 -129 -101 -149 -106 -156 -141 -214 -33 -53 -47 -52 -47 5 0 36 -2 39
-28 39 -49 0 -92 -90 -92 -194 0 -70 -1 -72 -48 -127 -60 -71 -124 -121 -175
-136 -48 -14 -70 -5 -92 38 -14 27 -14 35 1 87 9 31 22 71 30 87 20 47 54 119
64 135 5 8 11 22 14 30 4 8 22 42 40 75 38 66 95 179 120 238 9 21 16 62 16
92 0 128 -72 169 -120 70 -6 -11 -19 -33 -30 -50 -11 -16 -24 -39 -30 -50 -6
-11 -19 -33 -29 -50 -21 -32 -145 -279 -168 -332 -54 -127 -113 -216 -197
-298 -77 -75 -127 -95 -174 -71 -34 18 -37 29 -33 116 2 59 33 134 106 265 19
33 39 69 45 80 6 11 24 43 41 70 16 28 36 64 44 82 8 17 18 34 23 37 5 3 15
30 22 61 20 84 -9 161 -78 207 -35 23 -57 22 -112 -7 -25 -13 -55 -28 -66 -34
-12 -5 -61 -47 -109 -93 -85 -80 -114 -99 -106 -68 2 8 6 53 8 100 3 74 1 88
-16 110 -16 20 -24 23 -38 14 -16 -10 -39 -42 -63 -89 -6 -11 -19 -33 -30 -50
-11 -16 -24 -39 -30 -50 -6 -11 -19 -33 -30 -50 -10 -16 -29 -50 -42 -75 -13
-25 -26 -47 -30 -50 -4 -3 -12 -17 -17 -30 -6 -14 -16 -34 -23 -45 -16 -28
-22 -39 -63 -125 -20 -41 -42 -86 -49 -100 -7 -14 -22 -54 -32 -88 -16 -54
-28 -72 -77 -118 -51 -47 -129 -95 -154 -94 -4 1 -18 9 -30 19 -19 16 -23 29
-23 75 0 30 8 72 17 93 31 70 84 178 104 208 10 17 23 39 29 50 6 11 20 36 31
55 130 214 159 307 127 412 -12 41 -50 70 -67 52 -16 -17 -61 -103 -61 -117 0
-16 -31 -47 -48 -47 -7 0 -12 17 -12 45 0 37 -5 50 -35 80 -34 34 -38 35 -108
35 -47 -1 -79 -6 -91 -15 -11 -8 -25 -15 -32 -15 -24 0 -130 -79 -203 -151
-93 -93 -207 -244 -247 -329 -52 -110 -64 -158 -64 -258 0 -95 12 -134 57
-188 26 -32 97 -64 140 -64 40 0 118 25 144 47 8 7 20 13 26 13 11 0 77 68
105 109 23 32 48 21 48 -21 0 -45 31 -92 81 -124 35 -22 54 -26 113 -27 75 0
127 19 173 62 31 29 40 27 63 -19 22 -43 56 -54 66 -23 18 57 134 304 177 378
114 195 181 275 333 400 64 53 147 105 166 105 40 0 29 -36 -44 -148 -10 -15
-22 -36 -28 -47 -6 -11 -19 -33 -30 -50 -10 -16 -42 -77 -70 -135 -29 -58 -58
-118 -66 -133 -8 -16 -14 -38 -14 -50 0 -12 -7 -40 -15 -62 -20 -56 -18 -105
5 -156 43 -95 86 -120 203 -120 69 0 89 4 127 25 25 14 54 30 65 35 11 5 37
28 58 50 46 49 67 53 67 12 0 -36 32 -76 81 -101 47 -24 144 -27 185 -5 16 8
36 15 45 15 9 0 22 7 29 15 7 8 18 15 25 15 7 0 37 27 68 60 31 33 61 60 66
60 5 0 12 -11 15 -24 9 -34 97 -110 153 -131 30 -11 86 -20 146 -22 107 -5
151 5 257 56 53 25 160 119 160 141 0 28 28 4 54 -46 32 -60 85 -109 144 -133
62 -24 190 -26 264 -3 71 22 152 63 183 92 29 27 44 25 50 -7 9 -41 33 -93 44
-93 21 0 41 13 41 26 0 7 7 30 16 51 40 94 47 109 55 123 5 8 12 22 15 30 3 8
9 22 14 30 5 8 21 38 35 65 15 28 32 59 38 70 7 11 25 43 41 70 42 71 112 162
171 220 83 84 254 205 288 205 22 0 23 -52 2 -70 -8 -7 -15 -16 -15 -21 0 -4
-19 -36 -42 -71 -59 -89 -64 -96 -93 -155 -14 -28 -30 -55 -35 -58 -6 -3 -10
-14 -10 -24 0 -10 -7 -24 -15 -31 -8 -7 -15 -21 -15 -30 0 -10 -6 -31 -14 -47
-28 -57 -46 -132 -46 -192 0 -130 78 -201 221 -201 38 0 77 4 87 10 9 5 28 14
42 20 42 17 63 32 135 105 66 65 90 101 129 199 21 51 20 69 -4 91 -29 27 -46
14 -74 -55 -4 -8 -15 -28 -26 -45 -11 -16 -24 -41 -30 -54 -19 -42 -162 -175
-201 -187 -52 -16 -95 3 -104 46 -13 61 5 155 46 230 5 8 20 38 34 65 14 28
39 73 56 100 16 28 37 64 45 80 8 17 23 44 34 60 56 89 63 110 64 180 1 61 -2
74 -26 105 -15 19 -42 43 -61 53 l-34 18 -64 -30 c-35 -17 -93 -56 -129 -86
-35 -30 -70 -55 -77 -55 -22 0 -14 34 15 66 26 29 77 98 97 132 6 9 22 33 38
53 15 20 27 39 27 42 0 3 19 34 43 69 68 102 84 133 120 223 20 49 29 147 19
200 -6 33 -12 41 -32 43 -21 2 -33 -8 -70 -60z m-3949 -745 c12 -33 5 -102
-18 -158 -20 -50 -44 -106 -54 -125 -4 -8 -22 -42 -39 -75 -16 -34 -46 -85
-65 -114 -19 -29 -35 -55 -35 -58 0 -7 -84 -113 -123 -154 -92 -98 -185 -130
-208 -71 -14 35 -4 159 17 209 9 21 22 52 29 68 7 17 16 37 19 45 3 8 15 29
26 45 11 17 23 37 27 45 36 79 273 340 308 340 7 0 18 7 25 15 7 8 28 15 46
15 28 0 36 -5 45 -27z m2100 -175 c0 -7 0 -114 -1 -238 -1 -177 -5 -236 -17
-275 -25 -77 -41 -94 -89 -95 -49 0 -86 34 -133 124 -39 73 -39 98 -1 146 17
21 30 42 30 48 0 6 3 12 8 14 15 6 89 119 124 188 43 86 77 123 79 88z"/>
<path d="M3295 2313 c-27 -8 -63 -21 -78 -29 -16 -8 -35 -14 -42 -14 -7 0 -26
-6 -42 -14 -95 -46 -162 -69 -221 -74 -71 -5 -84 -28 -46 -78 28 -36 96 -74
133 -74 28 0 26 -15 -8 -59 -42 -53 -108 -160 -147 -236 -8 -16 -30 -57 -49
-90 -18 -33 -50 -94 -70 -135 -20 -41 -41 -82 -46 -90 -5 -8 -12 -22 -15 -30
-3 -8 -12 -28 -19 -45 -44 -100 -46 -107 -85 -215 -20 -57 -31 -132 -24 -169
6 -35 71 -128 116 -166 36 -31 86 -55 113 -55 23 0 67 16 128 46 16 8 37 14
47 14 9 0 23 7 30 15 7 8 17 15 23 15 12 0 79 33 118 58 15 9 47 30 73 45 25
16 46 33 46 38 0 5 5 9 10 9 25 0 207 175 286 276 35 45 64 84 64 87 0 4 12
23 26 44 14 21 30 47 35 58 5 11 13 27 18 35 22 37 61 139 81 210 7 25 14 91
17 147 5 105 -5 159 -45 243 -32 67 -134 190 -157 190 -6 0 -16 5 -22 11 -20
20 -115 49 -158 48 -22 0 -62 -8 -90 -16z m266 -179 c42 -38 59 -95 59 -198 0
-107 -12 -159 -68 -286 -11 -25 -22 -52 -26 -60 -3 -8 -15 -28 -26 -45 -11
-16 -23 -37 -27 -45 -9 -20 -85 -127 -120 -169 -94 -113 -249 -246 -368 -317
-27 -16 -59 -35 -70 -41 -11 -7 -40 -22 -65 -33 -25 -12 -56 -27 -70 -34 -90
-47 -134 -10 -100 84 30 82 43 117 56 145 22 52 115 238 148 297 17 31 44 80
60 110 50 91 57 102 76 133 10 17 30 53 45 80 14 28 29 57 34 65 36 65 42 85
44 157 2 69 4 78 22 81 22 4 74 25 118 48 16 8 36 14 46 14 9 0 26 6 37 14 41
29 163 29 195 0z"/>
<path d="M1390 2305 c-74 -17 -159 -53 -225 -95 -16 -11 -37 -23 -45 -27 -101
-46 -380 -338 -380 -397 0 -8 -7 -19 -15 -26 -8 -7 -15 -22 -15 -34 -1 -11 -7
-32 -15 -46 -9 -16 -14 -56 -15 -114 0 -110 19 -156 100 -236 57 -57 118 -110
127 -110 3 0 22 -13 42 -28 20 -16 43 -32 51 -36 52 -24 199 -127 215 -149 31
-44 16 -93 -40 -127 -30 -19 -51 -22 -126 -22 -89 0 -110 5 -209 51 -19 9 -41
22 -48 29 -7 6 -17 12 -22 12 -5 0 -53 33 -107 73 -125 92 -217 124 -286 98
-46 -18 -41 -39 25 -108 71 -74 220 -190 268 -209 8 -3 29 -12 45 -19 113 -49
116 -50 260 -50 111 0 146 4 170 17 17 9 37 19 45 22 38 15 150 119 150 140 0
5 8 18 17 28 13 14 17 38 18 92 0 66 -3 76 -25 98 -26 26 -88 68 -150 101 -19
11 -54 32 -78 48 -24 16 -46 29 -49 29 -9 0 -85 60 -131 104 -24 23 -52 61
-63 85 -18 42 -18 46 -3 100 19 66 21 70 37 96 74 119 110 160 217 252 94 80
98 83 105 83 5 0 64 39 75 50 11 11 138 69 181 83 37 12 51 13 70 3 21 -10 24
-19 22 -60 -1 -26 -7 -54 -14 -63 -14 -16 -33 -46 -46 -73 -4 -8 -26 -43 -49
-76 -106 -156 -130 -261 -76 -339 44 -63 68 -56 111 30 20 39 51 92 69 118 17
26 32 51 32 54 0 3 12 22 28 42 33 44 50 71 58 91 3 8 12 30 20 48 25 57 15
130 -27 202 -5 8 -14 25 -19 38 -6 13 -32 45 -59 71 -37 36 -60 50 -100 59
-29 7 -56 11 -59 11 -4 -1 -32 -7 -62 -14z"/>
<path d="M6038 1983 c-48 -55 -59 -115 -31 -166 61 -110 126 -117 181 -20 26
48 2 123 -57 176 -35 31 -71 35 -93 10z"/>
<path d="M1588 937 c-41 -44 -54 -87 -45 -144 8 -48 20 -58 71 -58 37 0 47 5
78 39 77 84 59 207 -30 205 -30 0 -44 -8 -74 -42z"/>
</g>
</svg>
