<?xml version="1.0" standalone="no"?>
<!DOCTYPE svg PUBLIC "-//W3C//DTD SVG 20010904//EN"
 "http://www.w3.org/TR/2001/REC-SVG-20010904/DTD/svg10.dtd">
<svg version="1.0" xmlns="http://www.w3.org/2000/svg"
 width="300.000000pt" height="128.000000pt" viewBox="0 0 300.000000 128.000000"
 preserveAspectRatio="xMidYMid meet">
<metadata>
Created by potrace 1.10, written by Peter Selinger 2001-2011
</metadata>
<g transform="translate(0.000000,128.000000) scale(0.050000,-0.050000)"
fill="#000000" stroke="none">
<path d="M1900 2171 c-311 -54 -488 -319 -254 -378 l44 -11 -45 37 c-220 182
218 379 628 282 774 -183 841 -956 133 -1534 -648 -528 -1999 -470 -2007 87
-2 109 -35 66 -38 -48 -12 -579 1450 -622 2110 -62 490 415 623 1034 294 1364
-187 188 -592 311 -865 263z"/>
<path d="M5362 2173 c-12 -15 -27 -85 -34 -155 -6 -70 -16 -141 -22 -158 -10
-30 -22 -105 -31 -200 -14 -140 48 -54 74 103 10 59 24 78 75 95 103 36 109
31 107 -93 -1 -127 18 -194 49 -175 13 8 16 80 9 196 -9 132 -3 215 18 294 33
121 32 126 -12 109 -35 -13 -54 -70 -55 -162 0 -72 -25 -97 -117 -117 l-66
-14 14 97 c8 53 22 112 32 131 35 69 6 105 -41 49z"/>
<path d="M4652 2078 c-73 -86 -68 -102 68 -221 129 -114 148 -166 81 -226 -54
-49 -237 -26 -259 33 -12 34 -18 35 -38 11 -39 -47 35 -96 163 -109 143 -15
213 24 214 119 0 61 2 63 29 27 78 -102 221 -142 301 -84 54 40 28 57 -46 31
-95 -33 -212 38 -235 143 -23 103 144 290 192 215 15 -22 21 -22 37 2 12 19
11 39 -3 55 -69 85 -276 -87 -276 -230 l0 -76 -112 103 c-91 84 -110 112 -99
146 28 89 146 97 178 14 16 -43 55 -39 39 4 -42 119 -153 140 -234 43z"/>
<path d="M4373 2087 c-7 -8 -13 -41 -14 -75 0 -34 -17 -143 -37 -242 -34 -171
-35 -230 -4 -230 15 0 102 441 102 516 0 43 -20 57 -47 31z"/>
<path d="M4073 2026 c-7 -7 -13 -42 -13 -78 0 -80 -42 -268 -60 -268 -7 0 -60
59 -117 130 -57 72 -111 130 -120 130 -32 0 -124 -406 -98 -432 29 -29 51 20
65 145 24 231 24 231 178 59 79 -89 151 -152 174 -152 49 0 49 24 -1 55 -36
22 -37 31 -13 100 56 158 59 365 5 311z"/>
<path d="M3271 1915 c-80 -81 -192 -515 -133 -515 28 0 35 21 51 140 12 89 14
91 107 115 51 13 116 30 142 37 44 13 47 10 34 -34 -34 -116 -39 -204 -10
-194 17 6 34 55 43 128 8 65 22 120 31 123 24 8 -4 196 -35 233 -46 56 -157
40 -230 -33z m199 -8 c20 -20 29 -50 22 -75 -6 -23 -12 -53 -12 -67 0 -14 -18
-25 -40 -25 -21 0 -76 -15 -120 -33 -104 -41 -114 -29 -71 83 49 128 155 184
221 117z"/>
<path d="M1953 1825 c-5 -8 -19 -68 -33 -132 -13 -64 -36 -147 -52 -184 -15
-37 -28 -91 -28 -120 0 -91 44 -43 83 92 21 71 51 173 67 226 17 53 25 105 19
115 -14 22 -43 23 -56 3z"/>
</g>
</svg>
