<?xml version="1.0" standalone="no"?>
<!DOCTYPE svg PUBLIC "-//W3C//DTD SVG 20010904//EN"
 "http://www.w3.org/TR/2001/REC-SVG-20010904/DTD/svg10.dtd">
<svg version="1.0" xmlns="http://www.w3.org/2000/svg"
 width="300.000000pt" height="114.000000pt" viewBox="0 0 300.000000 114.000000"
 preserveAspectRatio="xMidYMid meet">
<metadata>
Created by potrace 1.10, written by Peter Selinger 2001-2011
</metadata>
<g transform="translate(0.000000,114.000000) scale(0.050000,-0.050000)"
fill="#8a0a10" stroke="none">
<path d="M1804 1839 c-289 -51 -536 -301 -453 -460 32 -63 105 -93 269 -110
326 -36 329 -223 7 -622 -317 -395 -1273 -507 -1338 -158 -26 139 199 531 305
531 36 0 33 33 -4 47 -19 7 -64 -17 -115 -62 l-83 -75 45 65 c63 90 20 82 -53
-10 -276 -351 -240 -636 92 -728 461 -128 945 36 1255 425 296 371 242 639
-142 709 -181 33 -189 70 -47 219 207 219 621 262 583 60 -11 -57 42 -72 63
-18 55 144 -125 232 -384 187z m-188 -509 c17 -16 -40 -11 -120 11 -41 11 -79
28 -85 37 -10 16 187 -29 205 -48z"/>
<path d="M5360 1700 c0 -9 11 -20 24 -25 19 -6 19 -11 0 -23 -13 -8 -24 -5
-24 7 0 54 -32 13 -35 -44 -1 -36 -29 -144 -60 -241 -77 -231 -68 -245 148
-237 86 3 161 10 166 16 27 26 -63 48 -179 43 -146 -6 -148 -3 -92 158 22 64
33 72 103 77 116 8 209 31 209 51 0 21 -14 22 -155 18 -119 -3 -117 -6 -72 88
l33 70 157 -2 c153 -2 199 8 169 39 -21 21 -392 25 -392 5z"/>
<path d="M3129 1664 c-109 -125 -265 -564 -201 -564 18 0 32 16 32 38 0 21 26
100 58 175 32 75 69 175 83 222 31 105 32 105 125 -16 72 -92 153 -137 127
-70 -7 20 26 52 103 99 87 54 116 63 121 41 6 -31 -51 -225 -78 -259 -13 -17
-99 -263 -99 -283 0 -48 61 16 85 88 17 52 62 172 100 265 129 320 87 371
-163 201 l-116 -79 -61 64 c-33 35 -64 77 -69 93 -7 23 -17 20 -47 -15z"/>
<path d="M4968 1460 c-84 -261 -96 -272 -162 -139 -24 49 -70 143 -102 208
-82 167 -138 163 -185 -11 -11 -44 -48 -147 -80 -228 -68 -170 -72 -195 -25
-186 19 3 40 33 48 66 8 33 40 135 73 226 67 189 60 191 180 -46 90 -177 149
-235 216 -210 40 15 48 27 33 46 -15 18 1 93 57 263 91 276 86 251 52 251 -17
0 -56 -89 -105 -240z"/>
<path d="M2726 1656 c-11 -14 -45 -84 -76 -156 -30 -71 -75 -175 -101 -230
-74 -161 -79 -190 -30 -190 25 0 41 13 41 33 0 18 37 110 83 205 106 222 142
325 121 346 -10 10 -27 6 -38 -8z"/>
<path d="M3887 1552 c-162 -168 -173 -361 -26 -440 207 -111 486 203 371 417
-86 159 -205 167 -345 23z m266 -3 c114 -114 -3 -365 -185 -401 -101 -19 -183
145 -110 223 9 10 28 53 41 94 44 136 163 175 254 84z"/>
</g>
</svg>
