<?xml version="1.0" standalone="no"?>
<!DOCTYPE svg PUBLIC "-//W3C//DTD SVG 20010904//EN"
 "http://www.w3.org/TR/2001/REC-SVG-20010904/DTD/svg10.dtd">
<svg version="1.0" xmlns="http://www.w3.org/2000/svg"
 width="432.000000pt" height="414.000000pt" viewBox="0 0 432.000000 414.000000"
 preserveAspectRatio="xMidYMid meet">
<metadata>
Created by potrace 1.10, written by Peter Selinger 2001-2011
</metadata>
<g transform="translate(0.000000,414.000000) scale(0.100000,-0.100000)"
fill="#000000" stroke="none">
<path d="M1930 3805 c-281 -29 -514 -107 -751 -250 -116 -71 -137 -86 -240
-172 -328 -274 -544 -654 -624 -1098 -11 -64 -16 -151 -16 -294 0 -239 9 -304
77 -551 8 -30 19 -64 24 -75 5 -11 27 -63 49 -115 50 -115 133 -257 213 -362
72 -95 223 -255 248 -263 10 -3 21 -16 24 -28 9 -36 210 -176 371 -259 80 -41
260 -108 355 -133 337 -87 767 -71 1073 41 23 8 56 20 74 25 138 42 513 279
513 325 0 7 13 20 28 28 61 31 255 259 342 401 103 167 203 411 229 558 6 32
12 61 15 65 2 4 12 82 21 173 17 156 17 175 1 328 -9 90 -25 200 -36 245 -19
83 -62 225 -80 261 -5 11 -19 45 -32 75 -78 189 -255 441 -411 586 -312 289
-692 457 -1114 493 -145 13 -189 12 -353 -4z m-295 -1180 c264 -267 486 -485
494 -485 8 0 231 218 495 485 469 473 482 485 519 485 77 0 123 -87 80 -150
-9 -14 -248 -257 -531 -541 -531 -534 -539 -541 -595 -520 -13 5 -214 201
-447 435 -233 234 -428 426 -432 426 -4 0 -8 -404 -8 -897 0 -555 -4 -911 -10
-933 -26 -95 -153 -89 -180 8 -6 24 -10 388 -10 1055 0 1096 -1 1064 51 1101
13 9 39 16 59 16 33 0 61 -26 515 -485z m1555 -2 c16 -9 33 -27 39 -40 8 -17
11 -276 11 -844 l0 -821 -31 -29 c-49 -46 -101 -38 -142 21 -16 22 -17 80 -17
702 0 373 -3 678 -8 678 -4 0 -201 -193 -437 -430 l-430 -430 -47 0 c-39 0
-50 5 -67 27 -32 40 -36 70 -15 109 18 34 1003 1021 1054 1056 31 22 54 23 90
1z"/>
</g>
</svg>
