<?xml version="1.0" standalone="no"?>
<!DOCTYPE svg PUBLIC "-//W3C//DTD SVG 20010904//EN"
 "http://www.w3.org/TR/2001/REC-SVG-20010904/DTD/svg10.dtd">
<svg version="1.0" xmlns="http://www.w3.org/2000/svg"
 width="900.000000pt" height="600.000000pt" viewBox="0 0 900.000000 600.000000"
 preserveAspectRatio="xMidYMid meet">
<metadata>
Created by potrace 1.10, written by Peter Selinger 2001-2011
</metadata>
<g transform="translate(0.000000,600.000000) scale(0.100000,-0.100000)"
fill="#000000" stroke="none">
<path d="M5307 5784 c-4 -4 -7 -172 -7 -373 0 -215 -4 -372 -10 -381 -7 -12
-11 -8 -16 18 -4 21 -24 51 -54 80 -83 83 -163 109 -360 117 -168 7 -428 -8
-515 -29 -199 -49 -293 -129 -347 -296 -25 -79 -27 -633 -2 -719 44 -151 125
-231 294 -290 76 -27 294 -51 461 -51 314 0 486 65 546 207 21 53 32 30 35
-77 l3 -95 235 0 235 0 0 945 0 945 -246 3 c-135 1 -248 -1 -252 -4z m-146
-927 c67 -14 122 -54 149 -107 17 -34 20 -59 20 -191 0 -196 -20 -246 -119
-290 -40 -17 -68 -19 -328 -19 -259 0 -287 2 -321 19 -85 43 -101 88 -102 282
0 225 25 278 145 305 68 16 484 16 556 1z"/>
<path d="M6055 5777 c-3 -7 -4 -96 -3 -197 l3 -185 250 0 250 0 0 195 0 195
-248 3 c-196 2 -249 0 -252 -11z"/>
<path d="M1365 5239 c-177 -14 -288 -70 -348 -177 -33 -58 -45 -40 -49 74 l-3
89 -230 0 -230 0 -3 -668 -2 -667 252 2 253 3 5 412 5 411 31 39 c16 21 52 49
80 63 42 21 65 25 164 28 105 2 119 0 154 -20 54 -31 73 -62 87 -138 7 -36 17
-71 22 -77 7 -10 61 -13 207 -13 166 0 200 2 210 15 19 23 7 288 -16 346 -58
153 -127 220 -269 262 -62 19 -200 25 -320 16z"/>
<path d="M2525 5240 c-177 -10 -264 -36 -333 -98 -60 -54 -105 -172 -100 -263
l3 -54 235 0 235 0 23 42 c35 63 58 68 322 68 362 0 400 -20 400 -211 l0 -74
-27 12 c-16 7 -35 17 -43 23 -8 6 -44 20 -80 31 -59 17 -98 19 -420 18 -328 0
-361 -2 -430 -21 -212 -59 -269 -147 -269 -413 0 -187 25 -269 102 -335 100
-86 206 -105 574 -105 373 0 440 14 553 116 53 48 70 41 70 -31 l0 -55 235 0
c181 0 235 3 235 13 4 237 -3 947 -9 987 -28 171 -121 272 -311 335 -49 16
-96 19 -440 21 -212 1 -448 -2 -525 -6z m684 -796 c85 -21 110 -49 110 -119 0
-65 -26 -96 -99 -121 -48 -15 -91 -18 -320 -18 -265 -1 -265 -1 -309 24 -52
29 -65 60 -55 132 12 99 68 116 378 117 180 1 244 -3 295 -15z"/>
<path d="M7215 5240 c-230 -23 -370 -136 -426 -345 -26 -97 -28 -582 -3 -666
47 -158 115 -247 233 -305 118 -57 188 -64 681 -64 286 0 467 4 501 11 30 6
70 14 89 18 110 23 243 126 286 221 53 116 54 126 54 445 0 266 -2 307 -19
361 -43 137 -115 222 -231 275 -114 53 -103 52 -610 55 -261 1 -511 -2 -555
-6z m730 -384 c97 -16 126 -29 155 -69 20 -27 23 -45 28 -167 7 -191 -2 -263
-38 -304 -50 -57 -102 -66 -378 -66 -221 0 -246 2 -294 21 -62 24 -93 50 -119
101 -27 54 -28 316 -1 369 35 69 76 95 177 115 85 16 373 16 470 0z"/>
<path d="M6055 5208 c-3 -13 -4 -313 -3 -668 l3 -645 253 -3 252 -2 0 654 c0
360 -3 661 -6 670 -5 14 -37 16 -250 16 l-244 0 -5 -22z"/>
<path d="M6625 3328 c-3 -7 -6 -78 -7 -158 l-3 -145 -120 -5 -120 -5 0 -175 0
-175 120 -5 120 -5 6 -320 c6 -329 10 -368 53 -450 31 -61 120 -138 191 -167
126 -52 135 -53 430 -53 307 0 315 1 452 67 60 29 163 119 163 142 0 7 5 17
12 24 29 29 48 127 48 250 l0 122 -217 -2 -218 -3 -7 -85 c-7 -82 -9 -86 -45
-117 l-36 -33 -123 0 -123 0 -36 31 -35 31 0 284 0 284 390 0 390 0 0 180 0
180 -387 2 -388 3 -2 135 c-2 74 -5 145 -8 158 l-5 22 -246 0 c-186 0 -246 -3
-249 -12z"/>
<path d="M3190 3045 c-8 -2 -49 -8 -90 -15 -209 -32 -315 -110 -394 -292 -9
-20 -16 -43 -16 -52 0 -8 -7 -41 -15 -73 -11 -41 -15 -110 -15 -244 0 -209 17
-322 65 -422 29 -61 119 -167 164 -191 160 -87 263 -100 751 -93 306 5 353 8
415 26 96 28 144 46 157 59 7 7 17 12 23 12 13 0 95 85 113 119 21 36 41 109
48 173 6 56 6 58 -21 68 -17 6 -109 9 -239 8 l-211 -3 -3 -27 c-2 -16 -18 -43
-35 -61 -46 -49 -120 -62 -337 -62 -308 0 -380 36 -380 192 l0 73 613 2 612 3
0 150 c-1 436 -110 578 -490 636 -72 11 -677 23 -715 14z m612 -342 c24 -9 53
-27 65 -40 22 -25 40 -94 28 -113 -4 -6 -128 -10 -366 -10 l-359 0 0 46 c0 55
24 90 78 115 54 25 490 27 554 2z"/>
<path d="M5020 3044 c-225 -24 -244 -28 -347 -75 -47 -22 -103 -80 -133 -139
-37 -73 -37 -311 2 -410 32 -84 106 -155 197 -188 102 -36 201 -45 601 -49
381 -5 395 -6 425 -26 40 -28 45 -36 45 -77 -1 -89 -57 -105 -375 -105 -311 0
-391 17 -409 90 -3 12 -16 25 -28 29 -13 3 -125 6 -249 6 -167 0 -230 -3 -243
-13 -16 -12 -16 -17 -1 -92 35 -181 106 -253 302 -308 76 -21 94 -22 598 -22
473 0 527 2 600 19 165 38 239 86 288 186 l31 65 0 170 c0 155 -2 174 -23 218
-44 93 -143 163 -276 194 -86 20 -302 32 -597 32 -338 1 -398 14 -398 86 0 32
27 66 64 79 33 11 548 8 580 -4 16 -6 44 -26 62 -46 l33 -34 243 2 243 3 3 43
c2 25 -6 73 -18 112 -45 146 -142 206 -384 236 -104 14 -751 28 -836 18z"/>
<path d="M750 3011 c0 -5 11 -31 24 -58 13 -26 52 -106 86 -178 34 -71 95
-197 135 -280 77 -159 156 -323 256 -532 34 -71 78 -162 98 -203 l37 -75 316
-3 316 -2 52 107 c29 60 86 178 127 263 41 85 95 198 120 250 77 162 158 328
237 491 42 85 76 159 76 164 0 5 7 16 16 26 9 10 13 23 9 28 -4 7 -94 11 -269
11 -242 0 -264 -1 -279 -18 -10 -10 -17 -24 -17 -31 0 -7 -6 -25 -13 -39 -8
-15 -21 -44 -30 -64 -34 -77 -48 -109 -61 -140 -8 -18 -22 -51 -32 -73 -9 -22
-24 -56 -32 -75 -8 -19 -18 -42 -23 -51 -4 -9 -26 -61 -49 -115 -23 -54 -46
-103 -51 -108 -5 -6 -9 -16 -9 -23 0 -7 -13 -42 -30 -76 -16 -35 -30 -68 -30
-73 0 -5 -4 -16 -10 -24 -7 -12 -12 -12 -29 4 -12 11 -21 26 -21 34 0 7 -6 26
-13 40 -16 32 -35 74 -90 202 -25 58 -49 114 -57 131 -5 8 -40 91 -80 184 -40
93 -75 176 -80 184 -4 9 -15 34 -25 56 -9 22 -21 47 -25 55 -6 13 -49 15 -279
18 -161 1 -271 -1 -271 -7z"/>
<path d="M398 685 c-77 -52 -101 -150 -58 -232 33 -64 67 -77 210 -83 117 -5
125 -6 125 -25 0 -19 -8 -20 -135 -25 l-135 -5 0 -50 0 -50 139 -3 c154 -3
179 3 230 57 29 30 30 33 34 163 5 163 -5 198 -66 245 l-44 33 -131 0 c-124 0
-135 -2 -169 -25z m288 -119 c3 -13 4 -35 2 -47 -3 -23 -7 -24 -103 -27 -136
-4 -145 -1 -145 47 0 21 3 41 7 44 3 4 57 7 119 7 112 0 114 0 120 -24z"/>
<path d="M998 569 c-137 -139 -137 -139 -139 -189 -2 -28 2 -55 7 -60 5 -5 77
-11 159 -12 l150 -3 3 -25 c8 -70 9 -71 65 -68 47 3 52 5 55 28 6 58 12 70 35
70 32 0 47 18 47 55 0 39 -18 63 -50 67 -25 3 -25 3 -30 138 l-5 135 -80 2
-80 1 -137 -139z m180 -61 l-3 -73 -72 -3 c-58 -2 -73 0 -73 11 0 15 127 137
142 137 5 0 8 -33 6 -72z"/>
<path d="M1702 681 c-64 -47 -67 -57 -67 -228 l0 -152 30 -31 c47 -50 86 -61
210 -62 80 -1 119 3 145 15 74 33 100 75 100 156 0 52 -4 65 -32 102 -43 56
-79 67 -215 68 -106 1 -113 2 -113 21 0 18 8 20 153 22 l152 3 0 55 0 55 -161
3 -160 2 -42 -29z m276 -257 c23 -16 29 -57 12 -84 -10 -16 -158 -28 -205 -16
-44 11 -46 88 -2 106 39 15 170 12 195 -6z"/>
<path d="M3608 685 c-54 -36 -78 -82 -78 -146 1 -62 21 -107 64 -140 27 -21
43 -24 159 -27 99 -3 130 -8 134 -19 3 -7 2 -17 -2 -21 -3 -4 -66 -9 -138 -12
l-132 -5 0 -50 0 -50 130 -3 c150 -4 193 6 235 54 35 40 45 103 38 243 -5 110
-14 130 -70 171 -41 30 -43 30 -172 30 -123 0 -134 -2 -168 -25z m282 -115 c6
-12 10 -33 8 -48 l-3 -27 -100 -3 c-136 -4 -145 -1 -145 47 0 21 3 41 7 44 3
4 55 7 114 7 99 0 109 -2 119 -20z"/>
<path d="M4087 704 c-4 -4 -7 -65 -7 -136 l0 -128 164 0 c150 0 165 -2 190
-21 32 -25 33 -49 3 -77 -20 -19 -35 -22 -111 -22 -78 0 -91 3 -120 25 -37 28
-96 34 -115 11 -14 -17 7 -72 41 -102 42 -37 84 -47 202 -47 141 1 182 17 220
90 18 37 21 124 5 156 -39 75 -89 97 -224 97 -112 0 -135 5 -135 26 0 11 30
14 164 14 185 0 189 1 184 72 l-3 43 -226 3 c-124 1 -228 -1 -232 -4z"/>
<path d="M4866 690 c-16 -10 -40 -31 -52 -47 -22 -26 -23 -36 -24 -181 0 -151
0 -154 27 -188 40 -53 80 -65 213 -65 133 0 173 12 213 65 24 30 27 44 27 108
0 65 -3 76 -25 101 -52 56 -71 62 -205 67 -102 4 -125 8 -125 20 0 13 24 15
144 18 89 2 150 7 158 14 9 7 13 27 11 57 l-3 46 -165 2 c-146 2 -168 0 -194
-17z m275 -267 c19 -19 15 -74 -6 -89 -20 -15 -168 -20 -200 -8 -39 15 -38 96
2 107 35 10 192 2 204 -10z"/>
<path d="M6524 696 c-3 -7 -4 -33 -2 -57 l3 -44 50 -5 50 -5 3 -180 c3 -200 4
-205 69 -205 27 0 35 5 43 26 6 15 9 120 8 253 l-3 226 -108 3 c-85 2 -108 0
-113 -12z"/>
<path d="M6903 692 c-17 -9 -42 -30 -55 -47 -22 -28 -23 -37 -23 -187 l0 -157
30 -31 c47 -50 84 -60 210 -60 150 0 188 16 229 97 12 25 16 62 16 159 0 143
-11 173 -78 219 -34 24 -45 25 -167 25 -103 -1 -137 -4 -162 -18z m285 -222
c4 -145 0 -150 -122 -150 -121 0 -126 5 -126 135 0 57 3 111 6 119 5 14 23 16
123 14 l116 -3 3 -115z"/>
<path d="M7370 575 c0 -101 3 -135 13 -135 6 -1 75 -1 153 0 77 0 152 -4 167
-9 34 -13 45 -53 23 -86 -16 -24 -21 -25 -110 -25 -86 0 -97 2 -124 25 -35 29
-109 36 -118 10 -16 -40 35 -111 95 -135 46 -19 244 -16 292 4 20 8 48 31 62
50 24 30 27 44 27 108 0 68 -2 75 -33 109 -17 20 -41 39 -52 44 -11 5 -76 11
-145 14 -108 5 -125 8 -128 24 -3 16 10 17 156 17 181 0 185 2 180 72 l-3 43
-227 3 -228 2 0 -135z"/>
<path d="M8152 653 l3 -58 184 -5 c163 -4 185 -7 195 -23 20 -32 -16 -47 -117
-47 -205 0 -297 -76 -297 -245 0 -36 3 -65 8 -65 185 -5 485 -1 493 7 6 6 9
30 7 54 l-3 44 -177 5 c-97 3 -179 8 -183 12 -13 13 6 46 33 56 15 6 80 12
145 15 98 3 122 7 145 24 81 60 81 195 -1 257 -34 26 -35 26 -236 26 l-202 0
3 -57z"/>
<path d="M4614 317 c-14 -8 -19 -62 -8 -91 9 -23 119 -23 128 0 10 26 7 82 -5
89 -15 10 -98 11 -115 2z"/>
<path d="M7914 317 c-15 -8 -18 -46 -8 -85 6 -21 11 -23 68 -20 l61 3 3 44 c2
24 -1 48 -6 53 -12 12 -99 16 -118 5z"/>
<path d="M1437 314 c-12 -12 -8 -89 5 -102 14 -14 96 -16 117 -3 9 6 15 27 15
58 l1 48 -65 3 c-36 2 -69 0 -73 -4z"/>
</g>
</svg>
